<svg xmlns="http://www.w3.org/2000/svg" viewBox="0 0 480 430" width="480" height="430" font-family="ui-monospace, 'Cascadia Code', 'Fira Code', monospace">

  <!-- Background -->
  <rect width="480" height="430" fill="#161b22" rx="12"/>

  <!-- Title -->
  <text x="240" y="38" text-anchor="middle" fill="#8b949e" font-size="12" letter-spacing="0.1em">PAGE CACHE WRITE LPE FAMILY</text>
  <text x="240" y="62" text-anchor="middle" fill="#e6edf3" font-size="18" font-weight="bold">10 Year Anniversary</text>

  <!-- Candles (10), sitting on top tier which starts at y=148 -->
  <!-- candle rects: y=126, height=22, bottom=148 -->
  <g fill="#30363d" stroke="#484f58" stroke-width="1">
    <rect x="159" y="126" width="8" height="22" rx="2"/>
    <rect x="176" y="126" width="8" height="22" rx="2"/>
    <rect x="193" y="126" width="8" height="22" rx="2"/>
    <rect x="210" y="126" width="8" height="22" rx="2"/>
    <rect x="227" y="126" width="8" height="22" rx="2"/>
    <rect x="244" y="126" width="8" height="22" rx="2"/>
    <rect x="261" y="126" width="8" height="22" rx="2"/>
    <rect x="278" y="126" width="8" height="22" rx="2"/>
    <rect x="295" y="126" width="8" height="22" rx="2"/>
    <rect x="312" y="126" width="8" height="22" rx="2"/>
  </g>
  <!-- Flames -->
  <g>
    <ellipse cx="163" cy="122" rx="4" ry="6" fill="#f78166" opacity="0.9"/>
    <ellipse cx="180" cy="122" rx="4" ry="6" fill="#ffa657" opacity="0.9"/>
    <ellipse cx="197" cy="122" rx="4" ry="6" fill="#f78166" opacity="0.9"/>
    <ellipse cx="214" cy="122" rx="4" ry="6" fill="#ffa657" opacity="0.9"/>
    <ellipse cx="231" cy="122" rx="4" ry="6" fill="#f78166" opacity="0.9"/>
    <ellipse cx="248" cy="122" rx="4" ry="6" fill="#ffa657" opacity="0.9"/>
    <ellipse cx="265" cy="122" rx="4" ry="6" fill="#f78166" opacity="0.9"/>
    <ellipse cx="282" cy="122" rx="4" ry="6" fill="#ffa657" opacity="0.9"/>
    <ellipse cx="299" cy="122" rx="4" ry="6" fill="#f78166" opacity="0.9"/>
    <ellipse cx="316" cy="122" rx="4" ry="6" fill="#ffa657" opacity="0.9"/>
    <!-- inner highlights -->
    <ellipse cx="163" cy="123" rx="2" ry="3" fill="#ffa657" opacity="0.7"/>
    <ellipse cx="180" cy="123" rx="2" ry="3" fill="#e3b341" opacity="0.7"/>
    <ellipse cx="197" cy="123" rx="2" ry="3" fill="#ffa657" opacity="0.7"/>
    <ellipse cx="214" cy="123" rx="2" ry="3" fill="#e3b341" opacity="0.7"/>
    <ellipse cx="231" cy="123" rx="2" ry="3" fill="#ffa657" opacity="0.7"/>
    <ellipse cx="248" cy="123" rx="2" ry="3" fill="#e3b341" opacity="0.7"/>
    <ellipse cx="265" cy="123" rx="2" ry="3" fill="#ffa657" opacity="0.7"/>
    <ellipse cx="282" cy="123" rx="2" ry="3" fill="#e3b341" opacity="0.7"/>
    <ellipse cx="299" cy="123" rx="2" ry="3" fill="#ffa657" opacity="0.7"/>
    <ellipse cx="316" cy="123" rx="2" ry="3" fill="#e3b341" opacity="0.7"/>
  </g>

  <!-- Top tier: copy.fail 2026 — x=140, width=200, y=148, height=68 -->
  <rect x="140" y="148" width="200" height="68" rx="6" fill="#161b22" stroke="#f78166" stroke-width="1.5"/>
  <rect x="140" y="148" width="200" height="10" rx="4" fill="#f78166" opacity="0.25"/>
  <text x="240" y="173" text-anchor="middle" fill="#f78166" font-size="16" font-weight="bold">copy.fail</text>
  <text x="240" y="191" text-anchor="middle" fill="#8b949e" font-size="11">CVE-2026-31431</text>
  <text x="240" y="207" text-anchor="middle" fill="#6e7681" font-size="10" letter-spacing="0.05em">2026 · in-place write</text>

  <!-- Middle tier: DirtyPipe 2022 — x=125, width=230, y=216, height=72 -->
  <rect x="125" y="216" width="230" height="72" rx="6" fill="#161b22" stroke="#ffa657" stroke-width="1.5"/>
  <rect x="125" y="216" width="230" height="10" rx="4" fill="#ffa657" opacity="0.2"/>
  <text x="240" y="242" text-anchor="middle" fill="#ffa657" font-size="16" font-weight="bold">DirtyPipe</text>
  <text x="240" y="260" text-anchor="middle" fill="#8b949e" font-size="11">CVE-2022-0847</text>
  <text x="240" y="278" text-anchor="middle" fill="#6e7681" font-size="10" letter-spacing="0.05em">2022 · pipe buffer flag</text>

  <!-- Bottom tier: DirtyCow 2016 — x=110, width=260, y=288, height=78 -->
  <rect x="110" y="288" width="260" height="78" rx="6" fill="#161b22" stroke="#3fb950" stroke-width="1.5"/>
  <rect x="110" y="288" width="260" height="10" rx="4" fill="#3fb950" opacity="0.18"/>
  <text x="240" y="316" text-anchor="middle" fill="#3fb950" font-size="16" font-weight="bold">DirtyCoW</text>
  <text x="240" y="334" text-anchor="middle" fill="#8b949e" font-size="11">CVE-2016-0728</text>
  <text x="240" y="352" text-anchor="middle" fill="#6e7681" font-size="10" letter-spacing="0.05em">2016 · copy-on-write race</text>

  <!-- Cake plate -->
  <ellipse cx="240" cy="370" rx="150" ry="8" fill="#21262d"/>

  <!-- Footer -->
  <text x="240" y="400" text-anchor="middle" fill="#484f58" font-size="10" letter-spacing="0.06em">SAME PAGE CACHE ISSUE · NO ARCHITECTURAL FIX</text>

</svg>
